<?xml version="1.0" encoding="utf-8"?>
<!-- Generator: Adobe Illustrator 16.0.0, SVG Export Plug-In . SVG Version: 6.00 Build 0)  -->
<!DOCTYPE svg PUBLIC "-//W3C//DTD SVG 1.1//EN" "http://www.w3.org/Graphics/SVG/1.1/DTD/svg11.dtd">
<svg version="1.1" id="Layer_1" xmlns="http://www.w3.org/2000/svg" xmlns:xlink="http://www.w3.org/1999/xlink" x="0px" y="0px"
	 width="2000px" height="1332px" viewBox="0 0 2000 1332" enable-background="new 0 0 2000 1332" xml:space="preserve">
<image display="none" overflow="visible" enable-background="new    " width="500" height="333" xlink:href="PrunusLSMacroPerigynousLab500.jpg"  transform="matrix(4 0 0 4 0 0)">
</image>
<g>
	<g>
		<path id="XMLID_1_" fill="#F4F4F4" d="M809.5,743c0,0-2.271-15-11.385-17C789,724,743.5,703,724,695.5s-88-64-110-83
			s-98-70-115-88s-39-37-56-51s-46-27-66-48s-51-57-57-66s-83-57-104-73s-63-46-82-54s-56-25-64-28s-13-10-17-24s-7-25-7-25
			s7-1,21-10s15-17,15-17s18,4,25-8s8-22,8-22s16,6,22,9s16,4,16-1s0-13,0-13s5,8,11,7s13-2,13-2s13,3,25,14s23,25,23,25s24,1,28,10
			s29,60,29,60s-2-33-5-46s-5-22-5-31s-13-32-13-32s-10-15-1-12s24,19,24,19s4-4,12-2s25-12,37-12s41,16,45,14s19-14,33-8
			s63,27,70,27s44-6,61,0s46,30,58,31s28,9,43,15s26,19,36,28s22,18,22,18s9-20,20-40s33-55,43-56s28.188-4,32.094,7
			c3.906,11,7.906-3,15.406,1s28.167,12,36.833,16s9.667,7,15.667,10s25,15,27,28s5.479,44,5.479,44s9.521-40,36.521-44s72,9,87,10
			s60,8,74,8s30-5,30-5s14,26,27,32s28,24,33,33s27,34,27,40s5,21,5,21s84-51,94-59s58-49,72-64s78-64,123-73s87-18,125-7
			s64,31,64,31s32-48.793,36-63.396s24-55.604,34-62.604s61,6,73,9s22,3,38,5s32,5,32,11s0,16,0,16s13-3,16,2s13,16,13,16l12,11
			c0,0,14,3,19,7s15,19,11,21s-6,8-6,8s-2,7-9,9s-45,23-51,25s-14,12-14,12s42-12,33-6s-10,11-10,11s13,5,5,12s-98,53-111,58
			s-14,2-31,12s-131,86-140,94s-16,9-19,14s-62,76-91,97s-64,44-84,56s-91,64-110,79s-72,49-97,64s-59.252,39.999-63,49s-14,7-14,7
			l-18,29l-72,77.037l-12,54.963l-203,4l-56.167-127L809.5,743z"/>
	</g>
	<g>
		<g>
			<defs>
				<path id="SVGID_1_" d="M809.5,743c0,0-2.271-15-11.385-17C789,724,743.5,703,724,695.5s-88-64-110-83s-98-70-115-88
					s-39-37-56-51s-46-27-66-48s-51-57-57-66s-83-57-104-73s-63-46-82-54s-56-25-64-28s-13-10-17-24s-7-25-7-25s7-1,21-10
					s15-17,15-17s18,4,25-8s8-22,8-22s16,6,22,9s16,4,16-1s0-13,0-13s5,8,11,7s13-2,13-2s13,3,25,14s23,25,23,25s24,1,28,10
					s29,60,29,60s-2-33-5-46s-5-22-5-31s-13-32-13-32s-10-15-1-12s24,19,24,19s4-4,12-2s25-12,37-12s41,16,45,14s19-14,33-8
					s63,27,70,27s44-6,61,0s46,30,58,31s28,9,43,15s26,19,36,28s22,18,22,18s9-20,20-40s33-55,43-56s28.188-4,32.094,7
					c3.906,11,7.906-3,15.406,1s28.167,12,36.833,16s9.667,7,15.667,10s25,15,27,28s5.479,44,5.479,44s9.521-40,36.521-44
					s72,9,87,10s60,8,74,8s30-5,30-5s14,26,27,32s28,24,33,33s27,34,27,40s5,21,5,21s84-51,94-59s58-49,72-64s78-64,123-73
					s87-18,125-7s64,31,64,31s32-48.793,36-63.396s24-55.604,34-62.604s61,6,73,9s22,3,38,5s32,5,32,11s0,16,0,16s13-3,16,2
					s13,16,13,16l12,11c0,0,14,3,19,7s15,19,11,21s-6,8-6,8s-2,7-9,9s-45,23-51,25s-14,12-14,12s42-12,33-6s-10,11-10,11s13,5,5,12
					s-98,53-111,58s-14,2-31,12s-131,86-140,94s-16,9-19,14s-62,76-91,97s-64,44-84,56s-91,64-110,79s-72,49-97,64
					s-59.252,39.999-63,49s-14,7-14,7l-18,29l-72,77.037l-12,54.963l-203,4l-56.167-127L809.5,743z"/>
			</defs>
			<clipPath id="SVGID_2_">
				<use xlink:href="#SVGID_1_"  overflow="visible"/>
			</clipPath>
			<path clip-path="url(#SVGID_2_)" fill="#F4F4F4" stroke="#000000" stroke-width="3" stroke-miterlimit="10" d="M859.934,738.457
				c0,0-71.934-160.584-111.934-195.271c-40-34.687-106-110.868-90-197.776S699,216.5,699,216.5"/>
		</g>
	</g>
	<g>
		<g>
			<defs>
				<path id="SVGID_3_" d="M809.5,743c0,0-2.271-15-11.385-17C789,724,743.5,703,724,695.5s-88-64-110-83s-98-70-115-88
					s-39-37-56-51s-46-27-66-48s-51-57-57-66s-83-57-104-73s-63-46-82-54s-56-25-64-28s-13-10-17-24s-7-25-7-25s7-1,21-10
					s15-17,15-17s18,4,25-8s8-22,8-22s16,6,22,9s16,4,16-1s0-13,0-13s5,8,11,7s13-2,13-2s13,3,25,14s23,25,23,25s24,1,28,10
					s29,60,29,60s-2-33-5-46s-5-22-5-31s-13-32-13-32s-10-15-1-12s24,19,24,19s4-4,12-2s25-12,37-12s41,16,45,14s19-14,33-8
					s63,27,70,27s44-6,61,0s46,30,58,31s28,9,43,15s26,19,36,28s22,18,22,18s9-20,20-40s33-55,43-56s28.188-4,32.094,7
					c3.906,11,7.906-3,15.406,1s28.167,12,36.833,16s9.667,7,15.667,10s25,15,27,28s5.479,44,5.479,44s9.521-40,36.521-44
					s72,9,87,10s60,8,74,8s30-5,30-5s14,26,27,32s28,24,33,33s27,34,27,40s5,21,5,21s84-51,94-59s58-49,72-64s78-64,123-73
					s87-18,125-7s64,31,64,31s32-48.793,36-63.396s24-55.604,34-62.604s61,6,73,9s22,3,38,5s32,5,32,11s0,16,0,16s13-3,16,2
					s13,16,13,16l12,11c0,0,14,3,19,7s15,19,11,21s-6,8-6,8s-2,7-9,9s-45,23-51,25s-14,12-14,12s42-12,33-6s-10,11-10,11s13,5,5,12
					s-98,53-111,58s-14,2-31,12s-131,86-140,94s-16,9-19,14s-62,76-91,97s-64,44-84,56s-91,64-110,79s-72,49-97,64
					s-59.252,39.999-63,49s-14,7-14,7l-18,29l-72,77.037l-12,54.963l-203,4l-56.167-127L809.5,743z"/>
			</defs>
			<clipPath id="SVGID_4_">
				<use xlink:href="#SVGID_3_"  overflow="visible"/>
			</clipPath>
			<path clip-path="url(#SVGID_4_)" fill="#F4F4F4" stroke="#000000" stroke-width="3" stroke-miterlimit="10" d="M834.029,759
				c0,0,17.971-15.5-84.029-80S536,518.5,488,472.5S340,328.061,312,279.28s-30-71.78-30-71.78"/>
		</g>
	</g>
	<g>
		<g>
			<defs>
				<path id="SVGID_5_" d="M809.5,743c0,0-2.271-15-11.385-17C789,724,743.5,703,724,695.5s-88-64-110-83s-98-70-115-88
					s-39-37-56-51s-46-27-66-48s-51-57-57-66s-83-57-104-73s-63-46-82-54s-56-25-64-28s-13-10-17-24s-7-25-7-25s7-1,21-10
					s15-17,15-17s18,4,25-8s8-22,8-22s16,6,22,9s16,4,16-1s0-13,0-13s5,8,11,7s13-2,13-2s13,3,25,14s23,25,23,25s24,1,28,10
					s29,60,29,60s-2-33-5-46s-5-22-5-31s-13-32-13-32s-10-15-1-12s24,19,24,19s4-4,12-2s25-12,37-12s41,16,45,14s19-14,33-8
					s63,27,70,27s44-6,61,0s46,30,58,31s28,9,43,15s26,19,36,28s22,18,22,18s9-20,20-40s33-55,43-56s28.188-4,32.094,7
					c3.906,11,7.906-3,15.406,1s28.167,12,36.833,16s9.667,7,15.667,10s25,15,27,28s5.479,44,5.479,44s9.521-40,36.521-44
					s72,9,87,10s60,8,74,8s30-5,30-5s14,26,27,32s28,24,33,33s27,34,27,40s5,21,5,21s84-51,94-59s58-49,72-64s78-64,123-73
					s87-18,125-7s64,31,64,31s32-48.793,36-63.396s24-55.604,34-62.604s61,6,73,9s22,3,38,5s32,5,32,11s0,16,0,16s13-3,16,2
					s13,16,13,16l12,11c0,0,14,3,19,7s15,19,11,21s-6,8-6,8s-2,7-9,9s-45,23-51,25s-14,12-14,12s42-12,33-6s-10,11-10,11s13,5,5,12
					s-98,53-111,58s-14,2-31,12s-131,86-140,94s-16,9-19,14s-62,76-91,97s-64,44-84,56s-91,64-110,79s-72,49-97,64
					s-59.252,39.999-63,49s-14,7-14,7l-18,29l-72,77.037l-12,54.963l-203,4l-56.167-127L809.5,743z"/>
			</defs>
			<clipPath id="SVGID_6_">
				<use xlink:href="#SVGID_5_"  overflow="visible"/>
			</clipPath>
			<path clip-path="url(#SVGID_6_)" fill="#F4F4F4" stroke="#000000" stroke-width="3" stroke-miterlimit="10" d="M1033,796.118
				c0,0,99-382.032,123-413.825s66.213-65.793,66.213-65.793"/>
		</g>
	</g>
	<g>
		<g>
			<defs>
				<path id="SVGID_7_" d="M809.5,743c0,0-2.271-15-11.385-17C789,724,743.5,703,724,695.5s-88-64-110-83s-98-70-115-88
					s-39-37-56-51s-46-27-66-48s-51-57-57-66s-83-57-104-73s-63-46-82-54s-56-25-64-28s-13-10-17-24s-7-25-7-25s7-1,21-10
					s15-17,15-17s18,4,25-8s8-22,8-22s16,6,22,9s16,4,16-1s0-13,0-13s5,8,11,7s13-2,13-2s13,3,25,14s23,25,23,25s24,1,28,10
					s29,60,29,60s-2-33-5-46s-5-22-5-31s-13-32-13-32s-10-15-1-12s24,19,24,19s4-4,12-2s25-12,37-12s41,16,45,14s19-14,33-8
					s63,27,70,27s44-6,61,0s46,30,58,31s28,9,43,15s26,19,36,28s22,18,22,18s9-20,20-40s33-55,43-56s28.188-4,32.094,7
					c3.906,11,7.906-3,15.406,1s28.167,12,36.833,16s9.667,7,15.667,10s25,15,27,28s5.479,44,5.479,44s9.521-40,36.521-44
					s72,9,87,10s60,8,74,8s30-5,30-5s14,26,27,32s28,24,33,33s27,34,27,40s5,21,5,21s84-51,94-59s58-49,72-64s78-64,123-73
					s87-18,125-7s64,31,64,31s32-48.793,36-63.396s24-55.604,34-62.604s61,6,73,9s22,3,38,5s32,5,32,11s0,16,0,16s13-3,16,2
					s13,16,13,16l12,11c0,0,14,3,19,7s15,19,11,21s-6,8-6,8s-2,7-9,9s-45,23-51,25s-14,12-14,12s42-12,33-6s-10,11-10,11s13,5,5,12
					s-98,53-111,58s-14,2-31,12s-131,86-140,94s-16,9-19,14s-62,76-91,97s-64,44-84,56s-91,64-110,79s-72,49-97,64
					s-59.252,39.999-63,49s-14,7-14,7l-18,29l-72,77.037l-12,54.963l-203,4l-56.167-127L809.5,743z"/>
			</defs>
			<clipPath id="SVGID_8_">
				<use xlink:href="#SVGID_7_"  overflow="visible"/>
			</clipPath>
			<path clip-path="url(#SVGID_8_)" fill="#F4F4F4" stroke="#000000" stroke-width="3" stroke-miterlimit="10" d="M1034.389,865.5
				c0,0,145.611-179.246,198.611-217.123s53-37.877,53-37.877s78-66.156,112-90.078s174-156.271,198-194.097s96-176.825,96-176.825"
				/>
		</g>
	</g>
	<g>
		<path id="XMLID_2_" fill="none" stroke="#000000" stroke-width="3" stroke-miterlimit="10" d="M809.5,743c0,0-2.271-15-11.385-17
			C789,724,743.5,703,724,695.5s-88-64-110-83s-98-70-115-88s-39-37-56-51s-46-27-66-48s-51-57-57-66s-83-57-104-73s-63-46-82-54
			s-56-25-64-28s-13-10-17-24s-7-25-7-25s7-1,21-10s15-17,15-17s18,4,25-8s8-22,8-22s16,6,22,9s16,4,16-1s0-13,0-13s5,8,11,7
			s13-2,13-2s13,3,25,14s23,25,23,25s24,1,28,10s29,60,29,60s-2-33-5-46s-5-22-5-31s-13-32-13-32s-10-15-1-12s24,19,24,19s4-4,12-2
			s25-12,37-12s41,16,45,14s19-14,33-8s63,27,70,27s44-6,61,0s46,30,58,31s28,9,43,15s26,19,36,28s22,18,22,18s9-20,20-40
			s33-55,43-56s28.188-4,32.094,7c3.906,11,7.906-3,15.406,1s28.167,12,36.833,16s9.667,7,15.667,10s25,15,27,28s5.479,44,5.479,44
			s9.521-40,36.521-44s72,9,87,10s60,8,74,8s30-5,30-5s14,26,27,32s28,24,33,33s27,34,27,40s5,21,5,21s84-51,94-59s58-49,72-64
			s78-64,123-73s87-18,125-7s64,31,64,31s32-48.793,36-63.396s24-55.604,34-62.604s61,6,73,9s22,3,38,5s32,5,32,11s0,16,0,16
			s13-3,16,2s13,16,13,16l12,11c0,0,14,3,19,7s15,19,11,21s-6,8-6,8s-2,7-9,9s-45,23-51,25s-14,12-14,12s42-12,33-6s-10,11-10,11
			s13,5,5,12s-98,53-111,58s-14,2-31,12s-131,86-140,94s-16,9-19,14s-62,76-91,97s-64,44-84,56s-91,64-110,79s-72,49-97,64
			s-59.252,39.999-63,49s-14,7-14,7l-18,29l-72,77.037l-12,54.963l-203,4l-56.167-127L809.5,743z"/>
	</g>
</g>
<polygon fill="#4E8E3C" points="939,1193.5 880,1144.5 865,1053.5 851,920.5 839.243,879.502 830.167,808.169 920,788.5 1009,804.5 
	1054,861.671 1035,991 1006,1108.5 976,1193.5 "/>
<path fill="#BF8D28" stroke="#000000" stroke-width="3" stroke-miterlimit="10" d="M938.667,408.5c0,0-28.667-4.982-20-17.158
	s17.333-12.176,20-16.176s7.333-12,18.667-8.667s19.333,9.333,23.333,9.333s12.667,3.333,14.667,7.333s8,8,4.667,14.333
	s-7.333,11-10.667,11s-10.667,0-10.667,0"/>
<path fill="#FFFFFF" stroke="#000000" stroke-width="3" stroke-miterlimit="10" d="M780,555.501c0,0,0.896-121.832,0-139.001
	s0-100,0-100h9c0,0-1,83,0,103s-2.536,165.333,0,170s0.183,23,0.183,23"/>
<path fill="#FFFFFF" stroke="#000000" stroke-width="3" stroke-miterlimit="10" d="M820.001,807.119
	c0,0-8.336-117.619-17.168-200.619s-14.167-177,0-205s17.168-30,17.168-30H824c0,0-18.335,47-21.167,61s2.262,113,6.215,139
	s10.318,80.672,14.953,105s22,88,6,136"/>
<path fill="#FFFFFF" stroke="#000000" stroke-width="3" stroke-miterlimit="10" d="M825,794.502c0,0-2-157.002-5-193.002
	s-33.335-182-17.167-238c0,0,4.899-22,12.533-28s7.634-6,7.634-6l0,0c0,0-6.269,18-7.634,26s-10.25,55-3.81,89
	C818,478.5,828,522.502,832,562.001S842,661.5,845,705.5s0,160,0,160"/>
<path fill="#F9B928" stroke="#000000" stroke-width="3" stroke-miterlimit="10" d="M1099.334,449.5c0,0,0.256-10.334-11.539,0
	s-22.62,10.99-7.128,21s15.492,10.01,15.492,10.01"/>
<path fill="#FFFFFF" stroke="#000000" stroke-width="3" stroke-miterlimit="10" d="M872,803.5c0,0,2-72,0-105s-12.225-89.106-13-118
	s-7-77-8-101s0-113,0-113h10.722c0,0-3.235,101.26,0,129c3.237,27.74,19.278,102,21.278,138s14,144,11,155"/>
<path fill="#FFFFFF" stroke="#000000" stroke-width="3" stroke-miterlimit="10" d="M883,773.5c0,0-10-155-14-176s-14-50-18-70
	s0-94,0-94h15.111c0,0-8.947,74.105-7.111,85s31.242,64.965,29.121,109s11.26,101.348,8.192,114.845"/>
<path fill="#FFFFFF" stroke="#000000" stroke-width="3" stroke-miterlimit="10" d="M909.392,790.587
	c-0.876-5.007-5.558-0.597-3.392-46.087c1-21-2-100,0-117s-10.455-73-9.228-99c1.227-26,9.443-79,9.443-79l7.782,8c0,0-2,57,0,90
	s9,127,8,157s5.439,85.338,5.439,85.338"/>
<path fill="#FFFFFF" stroke="#000000" stroke-width="3" stroke-miterlimit="10" d="M888.122,796.118
	c0,0-12.699-178.667,6.357-218.618s14.912-34,14.912-34l12.705,7c0,0-28.139,49-27.616,68c0.521,19,8.557,172.087,8.557,172.087"/>
<path fill="#FFFFFF" stroke="#000000" stroke-width="3" stroke-miterlimit="10" d="M896.687,796.118
	c0,0-7.444-225.618-8.565-245.618s-6.121-74-5.121-96s6.82-46,6.82-46h6.866c0,0-1.729,47-2.207,64c-0.479,17,11.595,140,8.558,155
	s12.625,163.087,12.625,163.087"/>
<path fill="#FFFFFF" stroke="#000000" stroke-width="3" stroke-miterlimit="10" d="M973.824,796.118
	c0,0,20.176-255.618,20.176-282.618s9-114,12-142s13-55,13-55h5c0,0-13,134-13,165s3,133-2,185s-15.569,137-15.569,137"/>
<path fill="#FFFFFF" stroke="#000000" stroke-width="3" stroke-miterlimit="10" d="M1000,755.5c0,0,43-288,42-306s-6-63-6-83
	s6.018-55,6.018-55l4.982,5c0,0,5,79,6,92s8,70-5,143s-30,209-30,209"/>
<path fill="#FFFFFF" stroke="#000000" stroke-width="3" stroke-miterlimit="10" d="M1069,751.5c0,0,26-241,27-263s-3-118,0-139
	s6-26,8-33s6-16,6-16h5c0,0-9,35-7,59s2,121-3,192s-49.223,284.115-49.223,284.115"/>
<path fill="#FFFFFF" stroke="#000000" stroke-width="3" stroke-miterlimit="10" d="M1074,760.5c0,0,38-175.998,41-204.999
	s7-126.001,7-140.001s0-63,0-63l12-9c0,0,1,62,0,98s-7.049,179.792-19,243c-7.92,41.888-41,144.037-41,144.037"/>
<path fill="#FFFFFF" stroke="#000000" stroke-width="3" stroke-miterlimit="10" d="M1034.389,828.5c0,0,66.553-264.98,69.834-294.5
	c3.283-29.52,0-125.5,0-125.5l10.777-11c0,0,6,157,0,194.5s-61,250.518-61,250.518"/>
<path fill="#FFFFFF" stroke="#000000" stroke-width="3" stroke-miterlimit="10" d="M1033,768.5c0,0,21.551-146,22.775-171
	c1.224-25-11.39-79-11.39-79l0.042-12c0,0,24.617-6.577,24.57,106S1033,830.833,1033,830.833"/>
<path fill="#FFFFFF" stroke="#000000" stroke-width="3" stroke-miterlimit="10" d="M1007.516,803.5c0,0,15.2-240.038,9.484-267.5
	s-6-102.5-6-102.5h7.571c0,0,16.429,102,14.429,145.5s-8.384,237.5-8.384,237.5"/>
<path fill="#FFFFFF" stroke="#000000" stroke-width="3" stroke-miterlimit="10" d="M978.429,803.5c0,0,21.43-75.223,15.303-106.693
	c-6.127-31.47-5.313-48.43-5.313-48.43h6.319c0,0,24.833,53.415,5.263,125.123c-10.644,39-6.569,30-6.569,30"/>
<path fill="none" stroke="#000000" stroke-width="3" stroke-miterlimit="10" d="M1009,804.5c0,0,2.156-157-0.422-177
	s-4.578-39-4.578-39h11.888c0,0,11.474,209.72,8.112,233.604v-27.602"/>
<path fill="#FFFFFF" stroke="#000000" stroke-width="3" stroke-miterlimit="10" d="M1033.169,788.5c0,0,9.133-96.956,5.831-128
	s-2.556-75.5-2.556-75.5l14.556,7c0,0,4.551,119.414,4.775,146.457C1055.999,765.5,1038.5,840.5,1038.5,840.5"/>
<path fill="#F9B928" stroke="#000000" stroke-width="3" stroke-miterlimit="10" d="M1130.667,351.168c0,0,18-5.332,8-20
	s-32.222-10-29.444,0c2.778,10,16.115,24.667,16.115,24.667"/>
<path fill="#F9B928" stroke="#000000" stroke-width="3" stroke-miterlimit="10" d="M1108.984,306.501
	c0,0,25.689-13.333,16.354-22.667s-40.753-3.715-30.004,11.333s10.749,15.049,10.749,15.049l0,0"/>
<path fill="#F9B928" stroke="#000000" stroke-width="3" stroke-miterlimit="10" d="M1044.667,321.836c0,0,12-17.337,0-21.336
	s-19.08,13.114-11.498,16s6.848,5.336,6.848,5.336"/>
<path fill="#F9B928" stroke="#000000" stroke-width="3" stroke-miterlimit="10" d="M1024,321.836c0,0,36.001-18.84,13.334-27.087
	s-34.001,5.335-29.334,13.543s9.166,13.544,9.166,13.544"/>
<path fill="#F9B928" stroke="#000000" stroke-width="3" stroke-miterlimit="10" d="M1018.571,433.5c0,0,2.242-20.343-7.11-22.333
	c-9.352-1.99-22.794-4.416-17.461,11.167s19.284,16.83,19.284,16.83"/>
<path fill="#F9B928" stroke="#000000" stroke-width="3" stroke-miterlimit="10" d="M1115,403.834c0,0,5.504-22.667-4.748-26
	s-28.586-10-20.419,6.667s19.151,25.208,19.151,25.208"/>
<path fill="#F9B928" stroke="#000000" stroke-width="3" stroke-miterlimit="10" d="M1034.389,409.709
	c0,0,13.232-32.283-8.493-26.542c-21.727,5.741-19.325,28.148-10.609,30.407s8.716,2.259,8.716,2.259"/>
<path fill="#F9B928" stroke="#000000" stroke-width="3" stroke-miterlimit="10" d="M1050,511.834c0,0,13.038-17.175-5.524-22
	c-18.562-4.825-53.19,1.999-30.167,16.666c23.025,14.667,30.519,13.916,30.519,13.916"/>
<path fill="#F9B928" stroke="#000000" stroke-width="3" stroke-miterlimit="10" d="M1008.578,597c0,0-27.118-13.833-11.911-22.499
	s29.205-9.661,25.417,4.499s-3.788,14.16-3.788,14.16"/>
<path fill="#F9B928" stroke="#000000" stroke-width="3" stroke-miterlimit="10" d="M1041.306,592.063
	c0,0-36.551-9.615-18.595-23.923c17.956-14.306,27.955-12.972,28.289-2.972s-2.333,26.896-2.333,26.896"/>
<path fill="#F9B928" stroke="#000000" stroke-width="3" stroke-miterlimit="10" d="M996.293,651.843c0,0,10.373-3.343,3.707-18.01
	c-6.667-14.667-34-10.739-24,3.63s12.029,19.037,12.029,19.037"/>
<path fill="#F9B928" stroke="#000000" stroke-width="3" stroke-miterlimit="10" d="M932.598,637.464
	c0,0,34.932,11.036,11.833-20.297c-23.097-31.333-26.698,7.793-22.334,13.833c4.366,6.04,4.366,6.04,4.366,6.04"/>
<path fill="#F9B928" stroke="#000000" stroke-width="3" stroke-miterlimit="10" d="M917.035,552c0,0,15.632-3.833,12.965-18
	s-31.927-21.176-26.963-3.5s4.964,17.676,4.964,17.676"/>
<path fill="#F9B928" stroke="#000000" stroke-width="3" stroke-miterlimit="10" d="M946,488.299c0,0-15.333,7.255-12.667,16.063
	c2.666,8.807,12.667,12.14,12.667,12.14"/>
<path fill="#F9B928" stroke="#000000" stroke-width="3" stroke-miterlimit="10" d="M878.922,513.318
	c0,0,30.703,12.516,15.558-21.484c0,0-12.313-18.244-21.481,0s2.221,17.904,2.221,17.904"/>
<path fill="#F9B928" stroke="#000000" stroke-width="3" stroke-miterlimit="10" d="M913.922,459.895c0,0,24.745,9.421,12.078-14.985
	s-21.725-17.075-23.529-11.407c-1.804,5.668,2.993,20.979,2.993,20.979"/>
<path fill="#F9B928" stroke="#000000" stroke-width="3" stroke-miterlimit="10" d="M865.442,439.164c0,0,12.748-20.589,3.984-24.585
	c-8.762-3.996-31.428-15.922-27.428,0s8.718,24.585,8.718,24.585"/>
<path fill="#F9B928" stroke="#000000" stroke-width="3" stroke-miterlimit="10" d="M896.13,414.579c0,0,11.225-21.54,2.547-27.478
	c-8.677-5.936-26.338-6.228-26.174,4.586c0.164,10.813,4.3,12.896,10.366,16.813c6.064,3.915,8.465,6.079,8.465,6.079"/>
<path fill="#F9B928" stroke="#000000" stroke-width="3" stroke-miterlimit="10" d="M859,371.5c0,0,20.67-2.999,13.502-12.999
	s-23.835-20-26.168-6.667s4.614,19.666,4.614,19.666"/>
<path fill="#F9B928" stroke="#000000" stroke-width="3" stroke-miterlimit="10" d="M822.224,376.099c0,0,24.838,23.733,19.309-4.599
	c-5.531-28.332-15.083-19.093-19.309-13.046c-4.224,6.047-3.96,15.214-3.96,15.214"/>
<path fill="#F9B928" stroke="#000000" stroke-width="3" stroke-miterlimit="10" d="M818.261,338.835c0,0,28.186,3.665,32.295-9.335
	c4.111-13,3.265-17.667-11.313-18s-23.877,24-23.877,24"/>
<path fill="#F9B928" stroke="#000000" stroke-width="3" stroke-miterlimit="10" d="M798.999,325.404c0,0,20.189,6.526,19.262-15.188
	c-0.927-21.716-9.929-17.221-15.428-15.468s-14.479,8.216-12.656,14.984c1.823,6.768,2.596,12.104,2.596,12.104"/>
<path fill="#F9B928" stroke="#000000" stroke-width="3" stroke-miterlimit="10" d="M788.94,321.836c0,0,11.957-4.001,9.175-17.335
	s0.552-13.965-15.448-12.316s-20.49,10.685-16.245,14.5c4.245,3.815,15.302,15.15,15.302,15.15"/>
<path fill="#FFFFFF" stroke="#000000" stroke-width="3" stroke-miterlimit="10" d="M816,774.5c0,0,11-33,7-44s-33-72-44-128
	s-14-112-12-156s13-91,18-105s10.149-25,10.149-25l4.851,6c0,0-17,48.685-20,68.842S774,498.5,780,532.5s15,89,29,123s28,59,30,81
	s-9.008,58.002-9.008,58.002"/>
<path fill="#FFFFFF" stroke="#000000" stroke-width="3" stroke-miterlimit="10" d="M830.167,838.502
	c0,0,22.833-90.002,14.833-133.002s-8.9-122.998,2.05-149.999S878,506.5,878,506.5h5c0,0-30,49-32,65s14,119,14,138
	s1.518,49.372-2.5,76.332c-4.143,27.798-14.806,79.668-14.806,79.668"/>
<path fill="#78B73B" stroke="#000000" stroke-width="3" stroke-miterlimit="10" d="M894,1332c0,0,4-66.5,0-89.5s-14-55-18-67
	s-15-86-17-110s-19-121-21-139s-9-92-15-110s-16-58-41-67s-39-14-47-21s-9-13-9-13l-7-11c0,0,17,13,28,17s37,10,46,14s23,19,27,29
	s14,43,14,43l3,38l3,9l10,5c0,0,0,12,3,12s11,5,11,5s2,55,2,74s15,86,15,106s4,68,8,76s17,18,17,18l9,1c0,0-13-23-18-40s-3-38-2-55
	s5-34,15-47s16-19,16-32s6-123,6-143s11-169,12-187s0-126,0-142s-8-80-8-86s-3-14-3-14s3.889-13,11.444-14
	c7.555-1,20.556,3,27.556,5s18,0,16,6s-2,6-2,6s-1,17-2,39s-1,115-1,134s-7,129-8,166s-3,157-3,175s0,52,4,58s17,26,19,36s3,37,0,58
	s-8,54-15,64c-3.171,4.53-5.932,9.061-8.003,12.66c-2.501,4.348-3.997,7.34-3.997,7.34s18,5,32-98s16-86,21-111s8-42,8-62s0-37,0-37
	l11,1h10c0,0-2-18,7-32s25-48,36-53s46-36,61-36s30-12,36-17s32-29,32-29l11-8c0,0-28,45-35,54s-29,24-37,27s-26,13-42,30
	s-35,51-39,83s-22,105-28,136s-39,175-45,196s-19,65-24,87s-7,42.5-7,42.5H894z"/>
<path fill="#FFFFFF" stroke="#000000" stroke-width="3" stroke-miterlimit="10" d="M1029,857.5c0,0-10.283-66.132-14-84
	s-36.571-91.333-36.571-91.333l0.638-18.726c0,0,48.934,90.059,58.934,118.059s17.775,70,17.775,70"/>
<path fill="#FFFFFF" stroke="#000000" stroke-width="3" stroke-miterlimit="10" d="M846.333,869.835
	c0,0,24.667-78.335,29.667-99.335s10-56,20-73s35-70,35-70h6c0,0-32,72-33,79s-20,92-27,115s-12.848,59.289-12.848,59.289"/>
<path fill="#EBF2C4" stroke="#000000" stroke-width="3" stroke-miterlimit="10" d="M952.326,1028.5c-11.826-6-38.652,30-36.489,48
	s-0.619,52,13.772,56c14.391,4,30.415-8,29.401-40C958,1060.5,964.152,1034.5,952.326,1028.5z"/>
</svg>
